<svg width="24" height="24" fill="none" xmlns="http://www.w3.org/2000/svg"><circle cx="12" cy="12" r="12" fill="#EF483E"/><path d="M7.647 11.104h2.176c0-.299.026-.597.08-.896.064-.31.165-.587.304-.832.138-.256.32-.459.544-.608.234-.16.517-.24.848-.24.49 0 .89.155 1.2.464.32.299.48.72.48 1.264 0 .341-.08.645-.24.912-.15.267-.342.507-.576.72-.224.213-.475.41-.752.592a16.7 16.7 0 00-.784.512c-.48.33-.939.656-1.376.976-.427.32-.8.672-1.12 1.056-.32.373-.576.8-.768 1.28-.182.48-.272 1.045-.272 1.696h8.224v-1.952h-5.296c.277-.384.597-.72.96-1.008.362-.288.736-.555 1.12-.8.384-.256.762-.512 1.136-.768a6.189 6.189 0 001.024-.848 3.94 3.94 0 00.72-1.088c.181-.405.272-.89.272-1.456 0-.544-.107-1.035-.32-1.472a3.18 3.18 0 00-.832-1.104 3.755 3.755 0 00-1.232-.688 4.389 4.389 0 00-1.456-.24c-.672 0-1.27.117-1.792.352a3.381 3.381 0 00-1.28.96 4.059 4.059 0 00-.768 1.44 5.308 5.308 0 00-.224 1.776z" fill="#fff"/></svg>