<svg width="24" height="24" fill="none" xmlns="http://www.w3.org/2000/svg"><circle cx="12" cy="12" r="12" fill="#EF483E"/><path d="M10.703 11.328v1.6c.277 0 .565.01.864.032.309.01.592.07.848.176.256.096.464.256.624.48.17.224.256.55.256.976 0 .544-.176.976-.528 1.296-.352.31-.784.464-1.296.464-.331 0-.619-.059-.864-.176a1.818 1.818 0 01-.592-.464 2.212 2.212 0 01-.368-.704 3.328 3.328 0 01-.144-.864h-2.16c-.011.65.08 1.227.272 1.728.202.501.485.928.848 1.28.362.341.8.603 1.312.784a5.244 5.244 0 001.728.272c.544 0 1.066-.08 1.568-.24.501-.16.944-.395 1.328-.704.384-.31.688-.693.912-1.152.234-.459.352-.981.352-1.568 0-.64-.176-1.19-.528-1.648-.352-.459-.838-.757-1.456-.896v-.032c.522-.15.912-.432 1.168-.848.266-.416.4-.896.4-1.44 0-.501-.112-.944-.336-1.328a3.204 3.204 0 00-.88-.976 3.608 3.608 0 00-1.2-.592 4.524 4.524 0 00-1.344-.208c-.576 0-1.099.096-1.568.288-.47.181-.875.443-1.216.784a3.738 3.738 0 00-.784 1.232c-.182.47-.283.992-.304 1.568h2.16c-.011-.576.128-1.05.416-1.424.298-.384.736-.576 1.312-.576.416 0 .784.128 1.104.384.32.256.48.624.48 1.104 0 .32-.08.576-.24.768-.15.192-.347.341-.592.448a2.523 2.523 0 01-.768.176 4.813 4.813 0 01-.784 0z" fill="#fff"/></svg>